# Blender v2.79 (sub 0) OBJ File: ''
# www.blender.org
mtllib sphere2.mtl
o Sphere_Sphere.001
v 0.000000 0.959493 -0.281733
v 0.000000 0.654861 -0.755750
v 0.000000 0.142315 -0.989821
v 0.000000 -0.142315 -0.989821
v 0.000000 -0.415415 -0.909632
v 0.000000 -0.654861 -0.755749
v 0.000000 -0.841254 -0.540641
v 0.000000 -0.959493 -0.281733
v -0.000000 1.000000 -0.000000
v 0.107814 0.959493 -0.260287
v 0.206894 0.841254 -0.499487
v 0.289213 0.654861 -0.698222
v 0.348101 0.415415 -0.840390
v 0.378788 0.142315 -0.914476
v 0.378788 -0.142315 -0.914476
v 0.348101 -0.415415 -0.840390
v 0.289213 -0.654861 -0.698221
v 0.206894 -0.841254 -0.499487
v 0.107814 -0.959493 -0.260287
v 0.199215 0.959493 -0.199215
v 0.382291 0.841254 -0.382291
v 0.534396 0.654861 -0.534396
v 0.643207 0.415415 -0.643207
v 0.699909 0.142315 -0.699909
v 0.699909 -0.142315 -0.699909
v 0.643207 -0.415415 -0.643207
v 0.534396 -0.654861 -0.534396
v 0.382291 -0.841254 -0.382291
v 0.199215 -0.959493 -0.199215
v 0.260287 0.959493 -0.107814
v 0.499487 0.841254 -0.206894
v 0.698221 0.654861 -0.289213
v 0.840390 0.415415 -0.348101
v 0.914476 0.142315 -0.378788
v 0.914476 -0.142315 -0.378788
v 0.840390 -0.415415 -0.348101
v 0.698221 -0.654861 -0.289213
v 0.499487 -0.841254 -0.206894
v 0.260287 -0.959493 -0.107814
v 0.281732 0.959493 -0.000000
v 0.540641 0.841254 -0.000000
v 0.755749 0.654861 -0.000000
v 0.909632 0.415415 -0.000000
v 0.989821 0.142315 0.000000
v 0.989821 -0.142315 0.000000
v 0.909632 -0.415415 -0.000000
v 0.755749 -0.654861 -0.000000
v 0.540641 -0.841254 -0.000000
v 0.281732 -0.959493 -0.000000
v 0.260287 0.959493 0.107814
v 0.499487 0.841254 0.206894
v 0.698221 0.654861 0.289213
v 0.840390 0.415415 0.348101
v 0.914475 0.142315 0.378788
v 0.914475 -0.142315 0.378788
v 0.840390 -0.415415 0.348101
v 0.698221 -0.654861 0.289213
v 0.499487 -0.841254 0.206894
v 0.260287 -0.959493 0.107814
v 0.199215 0.959493 0.199215
v 0.382291 0.841254 0.382291
v 0.534395 0.654861 0.534395
v 0.643207 0.415415 0.643207
v 0.699909 0.142315 0.699909
v 0.699909 -0.142315 0.699909
v 0.643207 -0.415415 0.643207
v 0.534395 -0.654861 0.534395
v 0.382291 -0.841254 0.382291
v 0.199215 -0.959493 0.199215
v 0.107814 0.959493 0.260287
v 0.206894 0.841254 0.499487
v 0.289212 0.654861 0.698221
v 0.348101 0.415415 0.840390
v 0.378788 0.142315 0.914476
v 0.378788 -0.142315 0.914476
v 0.348101 -0.415415 0.840390
v 0.289212 -0.654861 0.698221
v 0.206894 -0.841254 0.499487
v 0.107814 -0.959493 0.260287
v -0.000000 0.959493 0.281732
v -0.000000 0.841254 0.540640
v -0.000000 0.654861 0.755749
v -0.000000 0.415415 0.909632
v -0.000000 0.142315 0.989821
v -0.000000 -0.142315 0.989821
v -0.000000 -0.415415 0.909631
v -0.000000 -0.654861 0.755749
v -0.000000 -0.841254 0.540640
v -0.000000 -0.959493 0.281732
v -0.107814 0.959493 0.260287
v -0.206894 0.841254 0.499487
v -0.289213 0.654861 0.698221
v -0.348101 0.415415 0.840390
v -0.378789 0.142315 0.914475
v -0.378789 -0.142315 0.914475
v -0.348101 -0.415415 0.840390
v -0.289213 -0.654861 0.698221
v -0.206894 -0.841254 0.499487
v -0.107814 -0.959493 0.260287
v 0.000000 -1.000000 -0.000000
v -0.199215 0.959493 0.199215
v -0.382291 0.841254 0.382290
v -0.534396 0.654861 0.534395
v -0.643207 0.415415 0.643206
v -0.699910 0.142315 0.699909
v -0.699910 -0.142315 0.699909
v -0.643207 -0.415415 0.643206
v -0.534396 -0.654861 0.534395
v -0.382291 -0.841254 0.382290
v -0.199215 -0.959493 0.199215
v -0.260287 0.959493 0.107814
v -0.499487 0.841254 0.206894
v -0.698221 0.654861 0.289212
v -0.840390 0.415415 0.348100
v -0.914476 0.142315 0.378788
v -0.914476 -0.142315 0.378788
v -0.840390 -0.415415 0.348100
v -0.698222 -0.654861 0.289212
v -0.499487 -0.841254 0.206894
v -0.260287 -0.959493 0.107814
v -0.281732 0.959493 -0.000000
v -0.540641 0.841254 -0.000000
v -0.755749 0.654861 -0.000000
v -0.909632 0.415415 -0.000001
v -0.989821 0.142315 -0.000001
v -0.989821 -0.142315 -0.000001
v -0.909632 -0.415415 -0.000001
v -0.755749 -0.654861 -0.000001
v -0.540641 -0.841254 -0.000000
v -0.281732 -0.959493 -0.000000
v -0.260287 0.959493 -0.107815
v -0.499487 0.841254 -0.206895
v -0.698221 0.654861 -0.289213
v -0.840390 0.415415 -0.348102
v -0.914475 0.142315 -0.378789
v -0.914475 -0.142315 -0.378789
v -0.840390 -0.415415 -0.348101
v -0.698221 -0.654861 -0.289213
v -0.499487 -0.841254 -0.206895
v -0.260287 -0.959493 -0.107815
v -0.199215 0.959493 -0.199215
v -0.382290 0.841254 -0.382291
v -0.534395 0.654861 -0.534396
v -0.643206 0.415415 -0.643207
v -0.699909 0.142315 -0.699910
v -0.699909 -0.142315 -0.699910
v -0.643206 -0.415415 -0.643207
v -0.534395 -0.654861 -0.534396
v -0.382290 -0.841254 -0.382291
v -0.199215 -0.959493 -0.199215
v -0.107814 0.959493 -0.260287
v -0.206894 0.841254 -0.499487
v -0.289212 0.654861 -0.698222
v -0.348101 0.415415 -0.840390
v -0.378788 0.142315 -0.914476
v -0.378788 -0.142315 -0.914476
v -0.348101 -0.415415 -0.840390
v -0.289212 -0.654861 -0.698222
v -0.206894 -0.841254 -0.499487
v -0.107814 -0.959493 -0.260287
v 0.000000 0.841254 -0.540641
v 0.000000 0.415415 -0.909632
vn 0.1650 0.5332 -0.8297
vn 0.0283 -0.9894 -0.1423
vn 0.0283 0.9894 -0.1423
vn 0.1650 -0.5332 -0.8297
vn 0.1875 0.2767 -0.9425
vn 0.0824 0.9065 -0.4140
vn 0.1292 -0.7494 -0.6494
vn 0.1951 0.0000 -0.9808
vn 0.1292 0.7494 -0.6494
vn 0.0824 -0.9065 -0.4140
vn 0.1875 -0.2767 -0.9425
vn 0.3678 0.7494 -0.5505
vn 0.2345 -0.9065 -0.3510
vn 0.5339 -0.2767 -0.7990
vn 0.4700 0.5332 -0.7034
vn 0.0806 -0.9894 -0.1206
vn 0.0806 0.9894 -0.1206
vn 0.4700 -0.5332 -0.7034
vn 0.5339 0.2767 -0.7990
vn 0.2345 0.9065 -0.3510
vn 0.3678 -0.7494 -0.5505
vn 0.5556 0.0000 -0.8315
vn 0.7034 0.5332 -0.4700
vn 0.1206 -0.9894 -0.0806
vn 0.1206 0.9894 -0.0806
vn 0.7034 -0.5332 -0.4700
vn 0.7990 0.2767 -0.5339
vn 0.3510 0.9065 -0.2345
vn 0.5505 -0.7494 -0.3678
vn 0.8315 0.0000 -0.5556
vn 0.5505 0.7494 -0.3678
vn 0.3510 -0.9065 -0.2345
vn 0.7990 -0.2767 -0.5339
vn 0.8297 -0.5332 -0.1650
vn 0.9425 0.2767 -0.1875
vn 0.4140 0.9065 -0.0824
vn 0.6494 -0.7494 -0.1292
vn 0.9808 0.0000 -0.1951
vn 0.6494 0.7494 -0.1292
vn 0.4140 -0.9065 -0.0824
vn 0.9425 -0.2767 -0.1875
vn 0.8297 0.5332 -0.1650
vn 0.1423 -0.9894 -0.0283
vn 0.1423 0.9894 -0.0283
vn 0.4140 0.9065 0.0824
vn 0.6494 -0.7494 0.1292
vn 0.9808 0.0000 0.1951
vn 0.6494 0.7494 0.1292
vn 0.4140 -0.9065 0.0824
vn 0.9425 -0.2767 0.1875
vn 0.8297 0.5332 0.1650
vn 0.1423 -0.9894 0.0283
vn 0.1423 0.9894 0.0283
vn 0.8297 -0.5332 0.1650
vn 0.9425 0.2767 0.1875
vn 0.5505 0.7494 0.3678
vn 0.3510 -0.9065 0.2345
vn 0.7990 -0.2767 0.5339
vn 0.7034 0.5332 0.4700
vn 0.1206 -0.9894 0.0806
vn 0.1206 0.9894 0.0806
vn 0.7034 -0.5332 0.4700
vn 0.7990 0.2767 0.5339
vn 0.3510 0.9065 0.2345
vn 0.5505 -0.7494 0.3678
vn 0.8315 0.0000 0.5556
vn 0.5339 -0.2767 0.7990
vn 0.4700 0.5332 0.7034
vn 0.0806 -0.9894 0.1206
vn 0.0806 0.9894 0.1206
vn 0.4700 -0.5332 0.7034
vn 0.5339 0.2767 0.7990
vn 0.2345 0.9065 0.3510
vn 0.3678 -0.7494 0.5505
vn 0.5556 0.0000 0.8315
vn 0.3678 0.7494 0.5505
vn 0.2345 -0.9065 0.3510
vn 0.0283 0.9894 0.1423
vn 0.1650 -0.5332 0.8297
vn 0.1875 0.2767 0.9425
vn 0.0824 0.9065 0.4140
vn 0.1292 -0.7494 0.6494
vn 0.1951 0.0000 0.9808
vn 0.1292 0.7494 0.6494
vn 0.0824 -0.9065 0.4140
vn 0.1875 -0.2767 0.9425
vn 0.1650 0.5332 0.8297
vn 0.0283 -0.9894 0.1423
vn -0.0824 0.9065 0.4140
vn -0.1292 -0.7494 0.6494
vn -0.1951 0.0000 0.9808
vn -0.1292 0.7494 0.6494
vn -0.0824 -0.9065 0.4140
vn -0.1875 -0.2767 0.9425
vn -0.1650 0.5332 0.8297
vn -0.0283 -0.9894 0.1423
vn -0.0283 0.9894 0.1423
vn -0.1650 -0.5332 0.8297
vn -0.1875 0.2767 0.9425
vn -0.5556 0.0000 0.8315
vn -0.3678 0.7494 0.5505
vn -0.2345 -0.9065 0.3510
vn -0.5339 -0.2767 0.7990
vn -0.4700 0.5332 0.7034
vn -0.0806 -0.9894 0.1206
vn -0.0806 0.9894 0.1206
vn -0.4700 -0.5332 0.7034
vn -0.5339 0.2767 0.7990
vn -0.2345 0.9065 0.3510
vn -0.3678 -0.7494 0.5505
vn -0.7990 -0.2767 0.5339
vn -0.7034 0.5332 0.4700
vn -0.1206 -0.9894 0.0806
vn -0.1206 0.9894 0.0806
vn -0.7034 -0.5332 0.4700
vn -0.7990 0.2767 0.5339
vn -0.3510 0.9065 0.2345
vn -0.5505 -0.7494 0.3678
vn -0.8315 0.0000 0.5556
vn -0.5505 0.7494 0.3678
vn -0.3510 -0.9065 0.2345
vn -0.1423 -0.9894 0.0283
vn -0.1423 0.9894 0.0283
vn -0.8297 -0.5332 0.1650
vn -0.9425 0.2767 0.1875
vn -0.4140 0.9065 0.0824
vn -0.6494 -0.7494 0.1292
vn -0.9808 0.0000 0.1951
vn -0.6494 0.7494 0.1292
vn -0.4140 -0.9065 0.0824
vn -0.9425 -0.2767 0.1875
vn -0.8297 0.5332 0.1650
vn -0.9425 0.2767 -0.1875
vn -0.4140 0.9065 -0.0824
vn -0.6494 -0.7494 -0.1292
vn -0.9808 0.0000 -0.1951
vn -0.6494 0.7494 -0.1292
vn -0.4140 -0.9065 -0.0824
vn -0.9425 -0.2767 -0.1875
vn -0.8297 0.5332 -0.1650
vn -0.1423 -0.9894 -0.0283
vn -0.1423 0.9894 -0.0283
vn -0.8297 -0.5332 -0.1650
vn -0.8315 0.0000 -0.5556
vn -0.5505 0.7494 -0.3678
vn -0.3510 -0.9065 -0.2345
vn -0.7990 -0.2767 -0.5339
vn -0.7034 0.5332 -0.4700
vn -0.1206 -0.9894 -0.0806
vn -0.1206 0.9894 -0.0806
vn -0.7034 -0.5332 -0.4700
vn -0.7990 0.2767 -0.5339
vn -0.3510 0.9065 -0.2345
vn -0.5505 -0.7494 -0.3678
vn -0.2345 -0.9065 -0.3510
vn -0.5339 -0.2767 -0.7990
vn -0.4700 0.5332 -0.7034
vn -0.0806 -0.9894 -0.1206
vn -0.0806 0.9894 -0.1206
vn -0.4700 -0.5332 -0.7034
vn -0.5339 0.2767 -0.7990
vn -0.2345 0.9065 -0.3510
vn -0.3678 -0.7494 -0.5505
vn -0.5556 0.0000 -0.8315
vn -0.3678 0.7494 -0.5505
vn -0.1650 0.5332 -0.8297
vn -0.0283 -0.9894 -0.1423
vn -0.0283 0.9894 -0.1423
vn -0.1650 -0.5332 -0.8297
vn -0.1875 0.2767 -0.9425
vn -0.0824 0.9065 -0.4140
vn -0.1292 -0.7494 -0.6494
vn -0.1951 0.0000 -0.9808
vn -0.1292 0.7494 -0.6494
vn -0.0824 -0.9065 -0.4140
vn -0.1875 -0.2767 -0.9425
usemtl None
s off
f 162//1 2//1 12//1 13//1
f 100//2 8//2 19//2
f 1//3 9//3 10//3
f 6//4 5//4 16//4 17//4
f 3//5 162//5 13//5 14//5
f 161//6 1//6 10//6 11//6
f 7//7 6//7 17//7 18//7
f 4//8 3//8 14//8 15//8
f 2//9 161//9 11//9 12//9
f 8//10 7//10 18//10 19//10
f 5//11 4//11 15//11 16//11
f 12//12 11//12 21//12 22//12
f 19//13 18//13 28//13 29//13
f 16//14 15//14 25//14 26//14
f 13//15 12//15 22//15 23//15
f 100//16 19//16 29//16
f 10//17 9//17 20//17
f 17//18 16//18 26//18 27//18
f 14//19 13//19 23//19 24//19
f 11//20 10//20 20//20 21//20
f 18//21 17//21 27//21 28//21
f 15//22 14//22 24//22 25//22
f 23//23 22//23 32//23 33//23
f 100//24 29//24 39//24
f 20//25 9//25 30//25
f 27//26 26//26 36//26 37//26
f 24//27 23//27 33//27 34//27
f 21//28 20//28 30//28 31//28
f 28//29 27//29 37//29 38//29
f 25//30 24//30 34//30 35//30
f 22//31 21//31 31//31 32//31
f 29//32 28//32 38//32 39//32
f 26//33 25//33 35//33 36//33
f 37//34 36//34 46//34 47//34
f 34//35 33//35 43//35 44//35
f 31//36 30//36 40//36 41//36
f 38//37 37//37 47//37 48//37
f 35//38 34//38 44//38 45//38
f 32//39 31//39 41//39 42//39
f 39//40 38//40 48//40 49//40
f 36//41 35//41 45//41 46//41
f 33//42 32//42 42//42 43//42
f 100//43 39//43 49//43
f 30//44 9//44 40//44
f 41//45 40//45 50//45 51//45
f 48//46 47//46 57//46 58//46
f 45//47 44//47 54//47 55//47
f 42//48 41//48 51//48 52//48
f 49//49 48//49 58//49 59//49
f 46//50 45//50 55//50 56//50
f 43//51 42//51 52//51 53//51
f 100//52 49//52 59//52
f 40//53 9//53 50//53
f 47//54 46//54 56//54 57//54
f 44//55 43//55 53//55 54//55
f 52//56 51//56 61//56 62//56
f 59//57 58//57 68//57 69//57
f 56//58 55//58 65//58 66//58
f 53//59 52//59 62//59 63//59
f 100//60 59//60 69//60
f 50//61 9//61 60//61
f 57//62 56//62 66//62 67//62
f 54//63 53//63 63//63 64//63
f 51//64 50//64 60//64 61//64
f 58//65 57//65 67//65 68//65
f 55//66 54//66 64//66 65//66
f 66//67 65//67 75//67 76//67
f 63//68 62//68 72//68 73//68
f 100//69 69//69 79//69
f 60//70 9//70 70//70
f 67//71 66//71 76//71 77//71
f 64//72 63//72 73//72 74//72
f 61//73 60//73 70//73 71//73
f 68//74 67//74 77//74 78//74
f 65//75 64//75 74//75 75//75
f 62//76 61//76 71//76 72//76
f 69//77 68//77 78//77 79//77
f 70//78 9//78 80//78
f 77//79 76//79 86//79 87//79
f 74//80 73//80 83//80 84//80
f 71//81 70//81 80//81 81//81
f 78//82 77//82 87//82 88//82
f 75//83 74//83 84//83 85//83
f 72//84 71//84 81//84 82//84
f 79//85 78//85 88//85 89//85
f 76//86 75//86 85//86 86//86
f 73//87 72//87 82//87 83//87
f 100//88 79//88 89//88
f 81//89 80//89 90//89 91//89
f 88//90 87//90 97//90 98//90
f 85//91 84//91 94//91 95//91
f 82//92 81//92 91//92 92//92
f 89//93 88//93 98//93 99//93
f 86//94 85//94 95//94 96//94
f 83//95 82//95 92//95 93//95
f 100//96 89//96 99//96
f 80//97 9//97 90//97
f 87//98 86//98 96//98 97//98
f 84//99 83//99 93//99 94//99
f 95//100 94//100 105//100 106//100
f 92//101 91//101 102//101 103//101
f 99//102 98//102 109//102 110//102
f 96//103 95//103 106//103 107//103
f 93//104 92//104 103//104 104//104
f 100//105 99//105 110//105
f 90//106 9//106 101//106
f 97//107 96//107 107//107 108//107
f 94//108 93//108 104//108 105//108
f 91//109 90//109 101//109 102//109
f 98//110 97//110 108//110 109//110
f 107//111 106//111 116//111 117//111
f 104//112 103//112 113//112 114//112
f 100//113 110//113 120//113
f 101//114 9//114 111//114
f 108//115 107//115 117//115 118//115
f 105//116 104//116 114//116 115//116
f 102//117 101//117 111//117 112//117
f 109//118 108//118 118//118 119//118
f 106//119 105//119 115//119 116//119
f 103//120 102//120 112//120 113//120
f 110//121 109//121 119//121 120//121
f 100//122 120//122 130//122
f 111//123 9//123 121//123
f 118//124 117//124 127//124 128//124
f 115//125 114//125 124//125 125//125
f 112//126 111//126 121//126 122//126
f 119//127 118//127 128//127 129//127
f 116//128 115//128 125//128 126//128
f 113//129 112//129 122//129 123//129
f 120//130 119//130 129//130 130//130
f 117//131 116//131 126//131 127//131
f 114//132 113//132 123//132 124//132
f 125//133 124//133 134//133 135//133
f 122//134 121//134 131//134 132//134
f 129//135 128//135 138//135 139//135
f 126//136 125//136 135//136 136//136
f 123//137 122//137 132//137 133//137
f 130//138 129//138 139//138 140//138
f 127//139 126//139 136//139 137//139
f 124//140 123//140 133//140 134//140
f 100//141 130//141 140//141
f 121//142 9//142 131//142
f 128//143 127//143 137//143 138//143
f 136//144 135//144 145//144 146//144
f 133//145 132//145 142//145 143//145
f 140//146 139//146 149//146 150//146
f 137//147 136//147 146//147 147//147
f 134//148 133//148 143//148 144//148
f 100//149 140//149 150//149
f 131//150 9//150 141//150
f 138//151 137//151 147//151 148//151
f 135//152 134//152 144//152 145//152
f 132//153 131//153 141//153 142//153
f 139//154 138//154 148//154 149//154
f 150//155 149//155 159//155 160//155
f 147//156 146//156 156//156 157//156
f 144//157 143//157 153//157 154//157
f 100//158 150//158 160//158
f 141//159 9//159 151//159
f 148//160 147//160 157//160 158//160
f 145//161 144//161 154//161 155//161
f 142//162 141//162 151//162 152//162
f 149//163 148//163 158//163 159//163
f 146//164 145//164 155//164 156//164
f 143//165 142//165 152//165 153//165
f 154//166 153//166 2//166 162//166
f 100//167 160//167 8//167
f 151//168 9//168 1//168
f 158//169 157//169 5//169 6//169
f 155//170 154//170 162//170 3//170
f 152//171 151//171 1//171 161//171
f 159//172 158//172 6//172 7//172
f 156//173 155//173 3//173 4//173
f 153//174 152//174 161//174 2//174
f 160//175 159//175 7//175 8//175
f 157//176 156//176 4//176 5//176
